<?xml version="1.0" encoding="UTF-8"?>
<svg width="100px" height="100px" viewBox="0 0 100 100" version="1.1" xmlns="http://www.w3.org/2000/svg" xmlns:xlink="http://www.w3.org/1999/xlink">
    <title>icon-librairies</title>
    <g id="icon-librairies" stroke="none" stroke-width="1" fill="none" fill-rule="evenodd">
        <path d="M50.5,3 C76.7335256,3 98,24.2664744 98,50.5 C98,76.7335256 76.7335256,98 50.5,98 C24.2664744,98 3,76.7335256 3,50.5 C3,24.2664744 24.2664744,3 50.5,3 Z" id="bg" fill="#BBA066"></path>
        <path d="M50.45,7 C74.4467724,7 93.9,26.4532276 93.9,50.45 C93.9,74.4467724 74.4467724,93.9 50.45,93.9 C26.4532276,93.9 7,74.4467724 7,50.45 C7,26.4532276 26.4532276,7 50.45,7 Z M50.45,7.9 C26.9502839,7.9 7.9,26.9502839 7.9,50.45 C7.9,73.9497161 26.9502839,93 50.45,93 C73.9497161,93 93,73.9497161 93,50.45 C93,26.9502839 73.9497161,7.9 50.45,7.9 Z" id="white" fill="#FFFFFF"></path>
        <g id="FileSvg" transform="translate(22, 22)">
            <path d="M19.5536719,43.7096484 C19.4130983,45.0891435 18.6623722,46.3332739 17.5074609,47.1007031 C16.351875,47.8710938 14.9179687,48.09375 13.6132031,48.09375 C12.4753507,48.0865722 11.3428727,47.9369714 10.2421875,47.6484375 C9.30661858,47.3744284 8.76512382,46.3992437 9.0271414,45.4602458 C9.28915897,44.521248 10.2573362,43.9673216 11.1996094,44.2173047 C12.1748437,44.4844922 14.5283203,44.8184766 15.5525391,44.1371484 C15.7484766,44.0057813 15.96,43.7987109 16.0290234,43.2621094 C16.1069531,42.6676172 15.8709375,42.3492188 13.1834766,41.5721484 C11.1016406,40.9709766 7.61707031,39.9623438 8.06238281,36.4265625 C8.20269967,35.074401 8.93700058,33.8546456 10.0662891,33.0978516 C12.7025391,31.3166016 16.9062891,32.3608594 17.3760937,32.4833203 C18.3278788,32.7335636 18.8965909,33.7080001 18.6463476,34.6597851 C18.3961044,35.6115702 17.4216679,36.1802823 16.4698828,35.9300391 C15.4723828,35.6695313 13.0788281,35.3600391 12.0546094,36.0547266 C11.7821633,36.2385252 11.6160746,36.543298 11.6092969,36.871875 C11.5848047,37.0722656 11.578125,37.1145703 11.8586719,37.2949219 C12.3730078,37.6266797 13.2925781,37.8916406 14.1854297,38.1499219 C16.3652344,38.7800391 20.0524219,39.8554688 19.5536719,43.7096484 Z M48.09375,19.59375 L48.09375,24.9375 C48.09375,25.9212572 47.2962572,26.71875 46.3125,26.71875 C45.3287428,26.71875 44.53125,25.9212572 44.53125,24.9375 L44.53125,21.375 L33.84375,21.375 C32.8599928,21.375 32.0625,20.5775072 32.0625,19.59375 L32.0625,8.90625 L12.46875,8.90625 L12.46875,24.9375 C12.46875,25.9212572 11.6712572,26.71875 10.6875,26.71875 C9.70374279,26.71875 8.90625,25.9212572 8.90625,24.9375 L8.90625,8.90625 C8.90625,6.93873558 10.5012356,5.34375 12.46875,5.34375 L33.84375,5.34375 C34.3155375,5.34396865 34.7679681,5.53134699 35.1017578,5.86476563 L47.5705078,18.3335156 C47.9052884,18.6674863 48.09375,19.1208712 48.09375,19.59375 Z M35.625,17.8125 L42.0130078,17.8125 L35.625,11.4244922 L35.625,17.8125 Z M32.6636719,32.1671484 C32.2187212,32.0078516 31.728704,32.0319109 31.3014984,32.2340297 C30.8742929,32.4361484 30.5449224,32.7997564 30.3858984,33.2448047 L27.609375,41.0155078 L24.8328516,33.2448047 C24.6335826,32.6264064 24.1134188,32.1655569 23.4755167,32.0422467 C22.8376145,31.9189365 22.1831726,32.1527278 21.7677913,32.6523106 C21.35241,33.1518934 21.2419867,33.8380124 21.4796484,34.4426953 L25.9327734,46.9114453 C26.1857671,47.6207141 26.8574491,48.0942603 27.6104883,48.0942603 C28.3635275,48.0942603 29.0352094,47.6207141 29.2882031,46.9114453 L33.7413281,34.4426953 C34.0715934,33.5167599 33.5892818,32.498325 32.6636719,32.1671484 L32.6636719,32.1671484 Z M46.3125,39.1875 L44.53125,39.1875 C43.5474928,39.1875 42.75,39.9849928 42.75,40.96875 C42.75,41.9525072 43.5474928,42.75 44.53125,42.75 L44.53125,43.9278516 C44.0182257,44.3160361 43.3933263,44.5277208 42.75,44.53125 C40.7861719,44.53125 39.1875,42.5273438 39.1875,40.078125 C39.1875,37.6289063 40.7861719,35.625 42.75,35.625 C43.3496953,35.6273988 43.9344636,35.812226 44.4266016,36.1549219 C45.2413682,36.6854754 46.33106,36.4646555 46.8750044,35.658767 C47.4189487,34.8528785 47.2161653,33.7596867 46.419375,33.2025 C45.3379439,32.4637533 44.0596652,32.0666181 42.75,32.0625 C38.8223438,32.0625 35.625,35.6583984 35.625,40.078125 C35.625,44.4978516 38.8223438,48.09375 42.75,48.09375 C44.5917289,48.0788337 46.3459204,47.3056364 47.5994531,45.95625 C47.916633,45.624789 48.09375,45.1837305 48.09375,44.7249609 L48.09375,40.96875 C48.09375,39.9849928 47.2962572,39.1875 46.3125,39.1875 Z" id="Shape" fill="#FFFFFF" fill-rule="nonzero"></path>
            <rect id="Rectangle" x="0" y="0" width="57" height="57"></rect>
        </g>
    </g>
</svg>